<?xml version="1.0" encoding="UTF-8"?>
<svg version="1.1" xmlns="http://www.w3.org/2000/svg" width="200" height="200">
<path d="M0 0 C66 0 132 0 200 0 C200 66 200 132 200 200 C134 200 68 200 0 200 C0 134 0 68 0 0 Z " fill="#131418" transform="translate(0,0)"/>
<path d="M0 0 C1.98 0 3.96 0 6 0 C6.33 11.22 6.66 22.44 7 34 C8.65 34 10.3 34 12 34 C12.33 22.78 12.66 11.56 13 0 C14.98 0 16.96 0 19 0 C19.33 11.22 19.66 22.44 20 34 C20.99 34 21.98 34 23 34 C23 38.62 23 43.24 23 48 C24.98 48.495 24.98 48.495 27 49 C27 50.98 27 52.96 27 55 C28.32 55 29.64 55 31 55 C31 56.32 31 57.64 31 59 C1.63 59 -27.74 59 -58 59 C-58 57.68 -58 56.36 -58 55 C-55.36 55 -52.72 55 -50 55 C-50 48.73 -50 42.46 -50 36 C-47.03 35.505 -47.03 35.505 -44 35 C-44.01740234 33.19402344 -44.01740234 33.19402344 -44.03515625 31.3515625 C-44.04453434 29.77604321 -44.05363452 28.20052225 -44.0625 26.625 C-44.07087891 25.8309375 -44.07925781 25.036875 -44.08789062 24.21875 C-44.11328125 18.2265625 -44.11328125 18.2265625 -43 16 C-41.68 16.33 -40.36 16.66 -39 17 C-39 22.94 -39 28.88 -39 35 C-37.02 35.33 -35.04 35.66 -33 36 C-33 34.68 -33 33.36 -33 32 C-28.82262526 30.40861915 -25.46839215 29.78721942 -21 30 C-21 31.98 -21 33.96 -21 36 C-19.35 36 -17.7 36 -16 36 C-16 40.29 -16 44.58 -16 49 C-14.35 49 -12.7 49 -11 49 C-11 44.05 -11 39.1 -11 34 C-7.7 34 -4.4 34 -1 34 C-0.67 22.78 -0.34 11.56 0 0 Z " fill="#DC5623" transform="translate(115,41)"/>
<path d="M0 0 C3.98066095 1.57724302 5.60667274 2.41000911 8 6 C8.125 8.6875 8.125 8.6875 8 11 C8.825 10.67 9.65 10.34 10.5 10 C14.8017677 8.77092351 17.53200949 8.50355661 22 9 C24.74411017 11.01234746 26.65863276 12.60618278 27.4909668 16.00463867 C27.71466962 18.2848908 27.79521723 20.52157218 27.8125 22.8125 C27.83763672 23.60076172 27.86277344 24.38902344 27.88867188 25.20117188 C27.94722981 27.13358373 27.97655488 29.06684327 28 31 C24.98968256 31.93423645 24.13349732 32.04449911 21 31 C20.01 31.495 20.01 31.495 19 32 C15.5 32.1875 15.5 32.1875 12 32 C11.34 31.34 10.68 30.68 10 30 C6.90301902 30.2752872 4.36336242 30.84557097 1.5 32.0625 C-1.6501003 33.24378761 -3.65542763 33.47779605 -7 33 C-10.70872279 30.43242268 -13.42402661 28.24796463 -15 24 C-16.45592743 10.93865106 -16.45592743 10.93865106 -13.7265625 5.4296875 C-9.54912052 0.55940148 -6.47455559 -0.43163704 0 0 Z " fill="#17191D" transform="translate(45,120)"/>
<path d="M0 0 C1.32 0 2.64 0 4 0 C4 0.66 4 1.32 4 2 C4.99 1.34 5.98 0.68 7 0 C11.17093474 -0.54067673 13.29917198 -0.41751457 16.9375 1.75 C20.05594319 6.66391049 19.86984695 11.33424012 19 17 C17.19196596 20.07365786 16.13960536 21.43019732 13 23 C10.6670134 23.04022391 8.33293334 23.04320247 6 23 C5.67 25.97 5.34 28.94 5 32 C2.525 32.495 2.525 32.495 0 33 C0 22.11 0 11.22 0 0 Z " fill="#D3D2D1" transform="translate(109,129)"/>
<path d="M0 0 C3.82136883 0.11096534 6.20843 0.77152853 9.1875 3.3125 C11.48081853 7.2439032 11.58068905 10.83014479 11.1875 15.3125 C9.90088139 18.83377199 8.77729611 20.80462002 5.9375 23.25 C2.19745576 24.69501709 0.020321 24.42750247 -3.8125 23.3125 C-8.2074362 18.80190759 -9.09782032 15.66154016 -9.0390625 9.5703125 C-8.47973586 3.99633321 -5.46557485 0.44799794 0 0 Z " fill="#D5D4D3" transform="translate(169.8125,128.6875)"/>
<path d="M0 0 C1.32 0.33 2.64 0.66 4 1 C6.0745356 1.1490712 6.0745356 1.1490712 8 0 C12.05142119 -0.25860135 13.54337669 -0.30441554 17 2 C17.99 1.34 18.98 0.68 20 0 C25.25570712 -0.54746949 25.25570712 -0.54746949 27.66918945 1.2277832 C29.38983045 3.5191303 29.34731164 4.82402426 29.29296875 7.66796875 C29.28330078 8.56064453 29.27363281 9.45332031 29.26367188 10.37304688 C29.23853516 11.30181641 29.21339844 12.23058594 29.1875 13.1875 C29.16719727 14.59805664 29.16719727 14.59805664 29.14648438 16.03710938 C29.11113096 18.35865038 29.06178674 20.67903653 29 23 C27.68 23 26.36 23 25 23 C24.67 17.39 24.34 11.78 24 6 C20.25308553 4.60229416 20.25308553 4.60229416 18 6 C17.67 11.61 17.34 17.22 17 23 C15.35 23 13.7 23 12 23 C11.67 17.06 11.34 11.12 11 5 C6.36980013 5.4452998 6.36980013 5.4452998 5 7 C4.76321284 9.69235776 4.57801975 12.36498156 4.4375 15.0625 C4.39431641 15.82111328 4.35113281 16.57972656 4.30664062 17.36132812 C4.20026367 19.24065438 4.09960066 21.12030244 4 23 C2.68 23 1.36 23 0 23 C0 15.41 0 7.82 0 0 Z " fill="#DCDBD9" transform="translate(76,129)"/>
<path d="M0 0 C2.75725377 2.00925419 4.65718973 3.59802891 5.49023438 7.00488281 C5.71472034 9.2851344 5.79521668 11.52150045 5.8125 13.8125 C5.83763672 14.60076172 5.86277344 15.38902344 5.88867188 16.20117188 C5.94722981 18.13358373 5.97655488 20.06684327 6 22 C2.98968256 22.93423645 2.13349732 23.04449911 -1 22 C-1.66 22.33 -2.32 22.66 -3 23 C-9.18035883 23.44948064 -9.18035883 23.44948064 -11.9375 21.9375 C-13.6140629 18.88023824 -13.36528977 16.4093712 -13 13 C-11.16884793 10.38406847 -10.09031634 10.03010545 -7 9 C-4.66700175 8.96045766 -2.33291811 8.95598268 0 9 C-0.33 7.68 -0.66 6.36 -1 5 C-4.63 5 -8.26 5 -12 5 C-11.67 3.68 -11.34 2.36 -11 1 C-7.35593938 -0.21468687 -3.75412801 -0.92134277 0 0 Z " fill="#D3D2D1" transform="translate(67,129)"/>
<path d="M0 0 C3.98066095 1.57724302 5.60667274 2.41000911 8 6 C8.125 8.6875 8.125 8.6875 8 11 C6.35 11.33 4.7 11.66 3 12 C2.34 10.02 1.68 8.04 1 6 C-1.31 5.67 -3.62 5.34 -6 5 C-9.32088139 8.5141602 -9.40512247 11.26073202 -9.375 16 C-9.38273437 17.216875 -9.39046875 18.43375 -9.3984375 19.6875 C-8.97987064 23.16734997 -8.5349323 24.61763307 -6 27 C-1.44551506 27.50605388 1.88733277 26.99402048 6 25 C6.66 25.99 7.32 26.98 8 28 C3.36436635 31.68473444 -0.95457662 33.64888265 -7 33 C-10.88288824 31.05443392 -13.47823456 28.03984369 -15 24 C-16.45592743 10.93865106 -16.45592743 10.93865106 -13.7265625 5.4296875 C-9.54912052 0.55940148 -6.47455559 -0.43163704 0 0 Z " fill="#D4D4D2" transform="translate(45,120)"/>
<path d="M0 0 C2.475 0.495 2.475 0.495 5 1 C5.66 1 6.32 1 7 1 C7.33 0.67 7.66 0.34 8 0 C11.22864898 -0.28699102 13.31526366 -0.38533715 16.17480469 1.22387695 C18 3 18 3 18.45410156 5.17651367 C18.42268066 6.40978394 18.42268066 6.40978394 18.390625 7.66796875 C18.37128906 9.00698242 18.37128906 9.00698242 18.3515625 10.37304688 C18.31804687 11.30181641 18.28453125 12.23058594 18.25 13.1875 C18.23195312 14.12787109 18.21390625 15.06824219 18.1953125 16.03710938 C18.1481655 18.35909889 18.08238231 20.6790369 18 23 C16.68 23 15.36 23 14 23 C14 17.06 14 11.12 14 5 C7.6 5.2 7.6 5.2 6 7 C5.76321284 9.69235776 5.57801975 12.36498156 5.4375 15.0625 C5.39431641 15.82111328 5.35113281 16.57972656 5.30664062 17.36132812 C5.20026367 19.24065438 5.09960066 21.12030244 5 23 C3.35 23 1.7 23 0 23 C0 15.41 0 7.82 0 0 Z " fill="#D1D0CF" transform="translate(140,129)"/>
<path d="M0 0 C2.375 0.3125 2.375 0.3125 5 1 C7.46372552 4.69558828 7.57583561 7.71044199 7 12 C5.5 15 5.5 15 4 17 C1.625 16.6875 1.625 16.6875 -1 16 C-3.67548031 11.98677954 -3.58740465 8.71626345 -3 4 C-1.5 1.4375 -1.5 1.4375 0 0 Z " fill="#1C1E22" transform="translate(169,132)"/>
<path d="M0 0 C2.5 0.25 2.5 0.25 4.5 2.25 C4.765625 4.78125 4.765625 4.78125 4.75 7.75 C4.75515625 8.7296875 4.7603125 9.709375 4.765625 10.71875 C4.5 13.25 4.5 13.25 2.5 15.25 C-0.5625 15.4375 -0.5625 15.4375 -3.5 15.25 C-5.30746134 13.44253866 -4.67303483 10.74554219 -4.6875 8.3125 C-4.70167969 7.23097656 -4.71585937 6.14945313 -4.73046875 5.03515625 C-4.42800042 1.37990336 -3.69383829 0.36938383 0 0 Z " fill="#181A1E" transform="translate(118.5,132.75)"/>
<path d="M0 0 C1 1 1 1 1.11352539 2.94946289 C1.10828857 3.7821167 1.10305176 4.61477051 1.09765625 5.47265625 C1.09443359 6.37177734 1.09121094 7.27089844 1.08789062 8.19726562 C1.07951172 9.14279297 1.07113281 10.08832031 1.0625 11.0625 C1.05798828 12.01189453 1.05347656 12.96128906 1.04882812 13.93945312 C1.0370011 16.29303065 1.02052025 18.64648477 1 21 C-0.32 21 -1.64 21 -3 21 C-3 15.06 -3 9.12 -3 3 C-5.31 2.67 -7.62 2.34 -10 2 C-6.8384898 -2.74226531 -4.75481356 -2.25228011 0 0 Z " fill="#E2E1DF" transform="translate(157,131)"/>
<path d="M0 0 C2.375 -0.125 2.375 -0.125 5 0 C7 2 7 2 7.22705078 4.15478516 C7.21657715 5.02409668 7.20610352 5.8934082 7.1953125 6.7890625 C7.18886719 7.73007813 7.18242187 8.67109375 7.17578125 9.640625 C7.15902344 10.62546875 7.14226562 11.6103125 7.125 12.625 C7.11597656 13.61757812 7.10695312 14.61015625 7.09765625 15.6328125 C7.07404116 18.08878134 7.04110799 20.54427168 7 23 C5.68 23 4.36 23 3 23 C2.67 17.06 2.34 11.12 2 5 C1.34 4.67 0.68 4.34 0 4 C0 2.68 0 1.36 0 0 Z " fill="#E0DFDD" transform="translate(129,129)"/>
<path d="M0 0 C4 1 4 1 7 3 C6.52433594 3.73476562 6.52433594 3.73476562 6.0390625 4.484375 C4.58626385 8.001677 4.53415248 11.49665393 4.375 15.25 C4.33632812 15.99507812 4.29765625 16.74015625 4.2578125 17.5078125 C4.16394892 19.3381524 4.08090282 21.16904143 4 23 C2.68 23 1.36 23 0 23 C0 15.41 0 7.82 0 0 Z " fill="#E1E0DE" transform="translate(76,129)"/>
<path d="M0 0 C1.134375 0.020625 2.26875 0.04125 3.4375 0.0625 C2.6875 4.8125 2.6875 4.8125 0.4375 7.0625 C-2.1875 6.6875 -2.1875 6.6875 -4.5625 6.0625 C-4.605221 4.39638095 -4.60313832 2.72867115 -4.5625 1.0625 C-3.5625 0.0625 -3.5625 0.0625 0 0 Z " fill="#1B1D20" transform="translate(63.5625,141.9375)"/>
<path d="M0 0 C1.65 0.33 3.3 0.66 5 1 C4.67 2.65 4.34 4.3 4 6 C2.35 5.67 0.7 5.34 -1 5 C-0.67 3.35 -0.34 1.7 0 0 Z " fill="#C2C2C1" transform="translate(131,120)"/>
<path d="M0 0 C1.98 0 3.96 0 6 0 C6 1.32 6 2.64 6 4 C4.02 4 2.04 4 0 4 C0 2.68 0 1.36 0 0 Z " fill="#542A1B" transform="translate(126,81)"/>
</svg>
